<svg width="1250" height="500" viewBox="0 0 1250 500" fill="none" xmlns="http://www.w3.org/2000/svg">
<rect width="1250" height="500" rx="10" fill="#121215"/>
<path fill-rule="evenodd" clip-rule="evenodd" d="M59.0022 321.818C54.6005 321.818 50.8446 325.002 50.1237 329.344V329.344C49.2133 334.828 53.4431 339.818 59.0022 339.818H68.1926C72.5924 339.818 76.3473 336.637 77.0703 332.297V332.297C77.984 326.811 73.7537 321.818 68.1926 321.818H59.0022ZM59.1234 275.134C58.1335 281.097 62.619 286.568 68.6602 286.767L76.1858 287.014C80.9836 287.171 85.1565 283.752 85.9453 279.017V279.017C86.7144 274.399 90.7094 271.015 95.3905 271.015H124.468V271.015C125.502 271.015 126.433 271.65 126.794 272.619L130.506 282.589C131.921 286.391 135.494 288.961 139.549 289.095L148.988 289.404C156.115 289.638 161.178 282.536 158.633 275.875L157.184 272.082C155.979 268.926 157.626 265.425 160.69 264.001V264.001C170.81 259.267 178.889 252.697 184.926 244.293C191.022 235.888 195.017 226.123 196.911 214.996C198.746 203.75 198.036 193.866 194.78 185.344C191.584 176.762 185.725 170.074 177.202 165.28C168.739 160.427 157.464 158 143.378 158H87.0463C82.1555 158 77.9823 161.538 77.1813 166.362L59.1234 275.134ZM178.396 327.606C177.065 324.121 173.72 321.818 169.989 321.818H158.065C151.79 321.818 147.441 328.078 149.63 333.958V333.958C150.942 337.481 154.305 339.818 158.065 339.818H169.989C176.296 339.818 180.647 333.498 178.396 327.606V327.606ZM231.624 333.959C225.472 329.858 229.322 321.818 236.715 321.818H312.367C314.179 321.818 315.081 323.949 313.744 325.17V325.17C307.647 330.674 300.456 334.965 292.17 338.043C283.944 341.061 274.829 342.57 264.827 342.57C251.451 342.57 240.383 339.7 231.624 333.959V333.959ZM236.029 285.609C235.713 289.394 232.61 292.15 228.813 292.026L219.615 291.724C214.35 291.551 210.076 287.313 210.475 282.06C210.709 278.978 211.1 275.8 211.648 272.524C213.957 258.556 218.603 246.246 225.587 235.592C232.57 224.939 241.271 216.623 251.687 210.646C262.163 204.668 273.734 201.679 286.4 201.679C294.094 201.679 301.344 202.951 308.151 205.496C315.016 208.041 320.846 212.036 325.64 217.482C330.434 222.927 333.748 229.999 335.583 238.7C337.477 247.341 337.418 257.846 335.405 270.216L335.246 271.21C334.468 276.06 330.284 279.626 325.372 279.626H242.434C239.162 279.626 236.301 282.348 236.029 285.609V285.609ZM371.819 321.818C365.239 321.818 361.44 328.734 366.678 332.716V332.716C375.319 339.286 387.393 342.57 402.899 342.57C413.789 342.57 423.673 340.795 432.551 337.244C441.429 333.692 448.709 328.78 454.391 322.506V322.506C454.634 322.241 454.443 321.818 454.084 321.818H371.819ZM465.403 290.806C465.981 295.893 461.331 299.661 456.214 299.493L446.076 299.16C441.401 299.006 437.879 294.76 434.682 291.345V291.345C432.137 288.563 427.639 286.433 421.188 284.953L399.171 279.893C386.86 276.993 378.16 272.317 373.07 265.866C367.98 259.415 366.263 251.306 367.921 241.54C369.223 233.55 372.596 226.596 378.041 220.678C383.546 214.7 390.5 210.054 398.904 206.739C407.309 203.366 416.601 201.679 426.781 201.679C441.636 201.679 452.793 204.875 460.25 211.267C465.442 215.676 469.084 221.131 471.178 227.633C472.787 232.63 469.025 237.436 463.852 238.326L457.648 239.394C452.469 240.285 447.67 236.644 444.98 232.13V232.13C443.382 229.348 440.926 227.099 437.612 225.383C434.297 223.607 429.888 222.719 424.384 222.719C416.749 222.719 410.061 224.465 404.32 227.957C398.638 231.449 395.383 235.888 394.554 241.274C393.785 245.654 394.82 249.205 397.661 251.928C400.502 254.591 405.503 256.81 412.665 258.586L433.617 263.558C445.69 266.458 454.332 270.985 459.54 277.141C462.85 280.971 464.804 285.526 465.403 290.806ZM513.391 321.818C506.193 321.818 501.563 329.394 507.153 333.928C507.984 334.602 508.856 335.234 509.766 335.823C515.862 339.67 523.29 341.594 532.05 341.594C542.289 341.594 551.285 339.197 559.038 334.403V334.403C565.625 330.311 561.943 321.818 554.188 321.818H513.391ZM585.225 321.818C580.834 321.818 577.084 324.987 576.351 329.317V329.317C575.422 334.809 579.655 339.818 585.225 339.818H593.051C597.451 339.818 601.205 336.637 601.929 332.298V332.298C602.843 326.812 598.613 321.818 593.051 321.818H585.225ZM649.09 321.818C644.688 321.818 640.933 325.002 640.212 329.344V329.344C639.301 334.828 643.531 339.818 649.09 339.818H656.777C661.174 339.818 664.928 336.641 665.654 332.304V332.304C666.572 326.816 662.341 321.818 656.777 321.818H649.09ZM679.343 321.818C675.79 321.818 673.535 325.522 675.405 328.543V328.543C677.772 332.272 681.323 335.527 686.058 338.309C690.852 341.091 697.392 342.482 705.678 342.482C716.687 342.482 726.955 339.67 736.484 334.048V334.048C742.843 330.256 739.479 321.818 732.075 321.818H679.343ZM760.196 299.357C764.015 299.237 767.473 296.964 768.806 293.383C771.256 286.802 773.118 279.642 774.393 271.903C776.819 257.165 776.434 244.559 773.238 234.083C770.042 223.607 764.597 215.588 756.903 210.024C749.209 204.461 739.858 201.679 728.849 201.679C720.386 201.679 713.343 203.099 707.72 205.94C702.097 208.722 697.51 211.977 693.959 215.706C690.628 219.263 687.971 222.415 685.986 225.164C685.807 225.412 685.521 225.56 685.215 225.56V225.56C684.634 225.56 684.191 225.039 684.285 224.465L693.293 169.621C694.293 163.533 689.596 158 683.426 158H677.134C672.243 158 668.07 161.537 667.269 166.362L646.579 290.992C645.546 297.212 650.457 302.824 656.759 302.625L671.994 302.144C674.623 302.061 676.417 299.417 675.849 296.849V296.849C674.31 289.629 674.31 281.224 675.849 271.636C677.387 262.167 680.11 253.881 684.016 246.778C687.922 239.676 692.864 234.142 698.842 230.177C704.82 226.211 711.656 224.229 719.35 224.229C727.34 224.229 733.643 226.3 738.26 230.443C742.935 234.586 746.013 240.238 747.493 247.4C748.972 254.561 749.002 262.64 747.581 271.636C746.043 280.751 743.32 288.948 739.414 296.228V296.228C738.517 297.899 739.728 300.004 741.624 299.944L760.196 299.357ZM796.6 321.818C795.493 321.818 794.738 322.936 795.233 323.927V323.927C798.311 330.082 803.075 334.787 809.527 338.043C815.978 341.239 823.524 342.837 832.165 342.837C839.682 342.837 846.31 341.742 852.051 339.552C857.792 337.362 862.646 334.61 866.611 331.295V331.295C870.89 327.772 868.036 321.818 862.493 321.818H796.6ZM884.565 321.818C880.181 321.818 876.435 324.977 875.695 329.297V329.297C874.752 334.796 878.987 339.818 884.565 339.818H892.183C896.585 339.818 900.342 336.633 901.062 332.289V332.289C901.97 326.806 897.741 321.818 892.183 321.818H884.565ZM899.08 294.97C903.851 294.819 907.85 291.318 908.63 286.609L914.818 249.264C916.475 239.321 916.12 231.242 913.752 225.028C911.385 218.754 907.775 213.93 902.921 210.557C898.127 207.183 892.801 204.875 886.941 203.632C881.082 202.33 875.43 201.679 869.985 201.679C861.758 201.679 853.709 202.863 845.837 205.23C837.965 207.538 830.715 211.267 824.086 216.416C820.638 219.088 817.507 222.2 814.694 225.753C810.667 230.839 813.931 237.935 820.241 239.442L824.424 240.44C828.706 241.463 833.073 239.468 836.082 236.255C838.486 233.686 841.412 231.276 844.86 229.023C850.897 225.116 858.355 223.163 867.233 223.163C875.755 223.163 881.733 225.324 885.166 229.644C888.612 233.849 889.752 239.726 888.587 247.274C888.556 247.475 888.539 247.68 888.539 247.883V247.883C888.539 248.093 888.523 248.303 888.484 248.51C887.903 251.545 886.353 253.75 883.834 255.124C881.23 256.485 877.324 257.491 872.115 258.142C866.966 258.793 860.249 259.592 851.963 260.539C845.393 261.249 838.883 262.344 832.431 263.824C825.98 265.304 820.002 267.523 814.498 270.482C808.994 273.382 804.318 277.318 800.471 282.29C799.525 283.531 798.657 284.858 797.866 286.27C794.674 291.964 799.766 298.107 806.291 297.901L813.085 297.687C817.198 297.557 820.59 294.704 823.277 291.588C823.671 291.132 824.088 290.696 824.53 290.28C827.549 287.38 831.307 285.16 835.805 283.621C840.362 282.083 845.245 280.988 850.453 280.337C852.643 279.982 855.395 279.597 858.71 279.183C862.083 278.768 865.516 278.265 869.008 277.673C872.5 277.081 875.637 276.401 878.419 275.631V275.631C880.576 275.047 883.661 277.289 883.294 279.494L881.437 290.635V290.635C881.036 293.07 882.836 295.483 885.303 295.405L899.08 294.97ZM953.362 321.818C946.782 321.818 942.983 328.734 948.221 332.716V332.716C956.862 339.286 968.936 342.57 984.442 342.57C995.332 342.57 1005.22 340.795 1014.09 337.244C1022.97 333.692 1030.25 328.78 1035.93 322.506V322.506C1036.18 322.241 1035.99 321.818 1035.63 321.818H953.362ZM1043.21 279.986C1046.39 284.968 1041.76 290.462 1035.85 290.649L1020.7 291.128C1017.81 291.219 1015.08 289.948 1012.57 288.511C1010.06 287.068 1006.78 285.882 1002.73 284.953L980.714 279.893C968.403 276.993 959.703 272.317 954.613 265.866C949.523 259.415 947.806 251.306 949.464 241.54C950.766 233.55 954.139 226.596 959.584 220.678C965.089 214.7 972.043 210.054 980.447 206.739C988.852 203.366 998.144 201.679 1008.32 201.679C1023.18 201.679 1034.34 204.875 1041.79 211.267C1046.98 215.676 1050.63 221.131 1052.72 227.633C1054.33 232.63 1050.57 237.436 1045.4 238.326L1039.19 239.394C1034.01 240.285 1029.21 236.644 1026.52 232.13V232.13C1024.93 229.348 1022.47 227.099 1019.15 225.383C1015.84 223.607 1011.43 222.719 1005.93 222.719C998.292 222.719 991.604 224.465 985.863 227.957C980.181 231.449 976.926 235.888 976.097 241.274C975.328 245.654 976.363 249.205 979.204 251.928C982.045 254.591 987.046 256.81 994.208 258.586L1015.16 263.558C1027.23 266.458 1035.87 270.985 1041.08 277.141C1041.87 278.048 1042.58 278.997 1043.21 279.986ZM1099.51 321.818C1092.11 321.818 1088.26 329.858 1094.42 333.959V333.959C1103.18 339.7 1114.24 342.57 1127.62 342.57C1137.62 342.57 1146.74 341.061 1154.96 338.043C1163.25 334.965 1170.44 330.674 1176.54 325.17V325.17C1177.87 323.949 1176.97 321.818 1175.16 321.818H1099.51ZM1188.77 306.292C1188.77 307.096 1189.81 307.374 1190.15 306.644C1190.16 306.622 1190.17 306.599 1190.18 306.577C1190.38 306.145 1190.12 305.644 1189.65 305.557V305.557C1189.19 305.472 1188.77 305.829 1188.77 306.292V306.292ZM1098.96 284.118C1098.69 286.768 1096.57 288.731 1093.91 288.815L1083.24 289.152C1077.63 289.329 1072.94 284.843 1073.52 279.259C1073.75 277.062 1074.06 274.817 1074.44 272.524C1076.75 258.556 1081.4 246.246 1088.38 235.592C1095.36 224.939 1104.06 216.623 1114.48 210.646C1124.96 204.668 1136.53 201.679 1149.19 201.679C1156.89 201.679 1164.14 202.951 1170.94 205.496C1177.81 208.041 1183.64 212.036 1188.43 217.482C1193.23 222.927 1196.54 229.999 1198.38 238.7C1200.27 247.341 1200.21 257.846 1198.2 270.216L1198.04 271.21C1197.26 276.06 1193.08 279.626 1188.17 279.626H1103.9C1101.39 279.626 1099.22 281.622 1098.96 284.118V284.118ZM1107.4 248.21C1104.29 253.775 1108.99 259.74 1115.37 259.74H1165.32C1170.17 259.74 1174.48 256.253 1174.43 251.407C1174.39 247.729 1173.82 244.322 1172.72 241.185C1170.83 235.74 1167.57 231.449 1162.95 228.313C1158.4 225.176 1152.66 223.607 1145.73 223.607C1138.63 223.607 1132 225.472 1125.84 229.2C1119.69 232.929 1114.54 237.693 1110.4 243.494C1109.29 245.053 1108.29 246.625 1107.4 248.21ZM607.177 300.809C606.847 302.786 605.168 304.255 603.164 304.318V304.318L575.812 303.42C575.321 303.404 575.064 302.824 575.374 302.442V302.442C579.517 297.412 582.209 291.02 583.452 283.266L595.375 211.809C596.18 206.988 600.351 203.455 605.239 203.455H611.598C617.777 203.455 622.478 209.003 621.462 215.099L607.177 300.809ZM522.824 288.151C521.914 294.852 516.546 301.474 509.787 301.252L504.777 301.087C499.235 300.905 494.875 296.236 495.737 290.759C495.767 290.57 495.797 290.381 495.828 290.191L508.987 211.799C509.796 206.982 513.965 203.455 518.849 203.455H525.126C531.306 203.455 536.007 209.004 534.989 215.1L522.994 286.995C522.932 287.384 522.876 287.769 522.824 288.151ZM244.611 248.21C241.499 253.775 246.199 259.74 252.575 259.74H302.525C307.372 259.74 311.691 256.253 311.639 251.407C311.6 247.729 311.029 244.322 309.926 241.185C308.032 235.74 304.777 231.449 300.16 228.313C295.603 225.176 289.862 223.607 282.937 223.607C275.835 223.607 269.206 225.472 263.051 229.2C256.896 232.929 251.747 237.693 247.604 243.494C246.495 245.053 245.497 246.625 244.611 248.21ZM93.1513 235.757C92.136 241.852 96.8363 247.4 103.015 247.4H126.066C135.003 247.4 142.46 246.127 148.438 243.582C154.416 241.037 159.092 237.338 162.465 232.485C165.898 227.632 168.147 221.802 169.212 214.996C170.337 208.071 170.011 202.123 168.236 197.151C166.46 192.121 162.998 188.273 157.849 185.61C152.7 182.888 145.627 181.526 136.631 181.526H110.657C105.768 181.526 101.596 185.061 100.793 189.883L93.1513 235.757Z" fill="#ECEDFB"/>
</svg>
