<svg width="1500" height="500" viewBox="0 0 1500 500" fill="none" xmlns="http://www.w3.org/2000/svg">
<rect width="1500" height="500" fill="#0E0E0F"/>
<path d="M217.4 204.7C221.2 205.9 224.3 208 226.7 211C229.3 213.8 230.6 218.4 230.6 224.8C230.6 231.2 228.7 238.2 224.9 245.8C221.1 253.4 215.6 257.2 208.4 257.2C204.8 257.2 201.3 256.4 197.9 254.8C194.7 253.2 190.4 252.4 185 252.4C179.6 252.4 174.5 254.3 169.7 258.1C165.1 261.9 162.8 266.5 162.8 271.9V334.9C162.8 339.5 162.6 343 162.2 345.4C162 347.6 161.1 350.2 159.5 353.2C156.5 358.4 148.7 361 136.1 361C126.5 361 119.6 359.3 115.4 355.9C112.2 353.1 110.4 348.8 110 343C110 341 110 338.1 110 334.3V229C110 224.4 110.1 221 110.3 218.8C110.7 216.4 111.6 213.8 113 211C115.8 205.6 123.6 202.9 136.4 202.9C148.4 202.9 155.9 205.2 158.9 209.8C161.1 213 162.2 216.3 162.2 219.7C163.2 218.3 164.6 216.6 166.4 214.6C168.4 212.6 172.5 209.9 178.7 206.5C184.9 203.1 190.3 201.4 194.9 201.4C199.7 201.4 203.7 201.7 206.9 202.3C210.1 202.7 213.6 203.5 217.4 204.7ZM390.427 263.2C390.427 275.4 387.327 284.5 381.127 290.5C375.127 296.3 368.427 299.2 361.027 299.2H289.927C289.927 304.8 293.227 309.5 299.827 313.3C306.427 317.1 313.027 319 319.627 319C331.227 319 340.327 317.8 346.927 315.4L350.227 314.2C355.027 312 359.027 310.9 362.227 310.9C368.627 310.9 374.127 315.4 378.727 324.4C381.327 329.8 382.627 334.4 382.627 338.2C382.627 356 361.327 364.9 318.727 364.9C303.927 364.9 290.727 362.4 279.127 357.4C267.727 352.2 258.827 345.4 252.427 337C239.827 320.8 233.527 302.7 233.527 282.7C233.527 257.5 241.627 237.4 257.827 222.4C274.227 207.2 294.627 199.6 319.027 199.6C346.827 199.6 367.227 209.4 380.227 229C387.027 239.4 390.427 250.8 390.427 263.2ZM327.127 271.9C334.727 271.9 338.527 268.7 338.527 262.3C338.527 257.7 336.727 254 333.127 251.2C329.727 248.4 324.727 247 318.127 247C311.727 247 305.327 249.7 298.927 255.1C292.527 260.3 289.327 265.9 289.327 271.9H327.127ZM411.2 346.9C407.4 344.5 405.5 340.7 405.5 335.5C405.5 330.3 409.3 322.4 416.9 311.8C419.1 308.4 422.6 306.7 427.4 306.7C432.4 306.7 439.1 309.2 447.5 314.2C455.9 319 463.5 321.4 470.3 321.4C482.5 321.4 488.6 319 488.6 314.2C488.6 310.4 481.9 307.6 468.5 305.8C455.9 304 443.4 299.3 431 291.7C425.2 288.1 420.4 282.5 416.6 274.9C412.8 267.1 410.9 257.9 410.9 247.3C410.9 215.7 432.6 199.9 476 199.9C490.2 199.9 504.8 203.3 519.8 210.1C526.8 213.3 530.3 217.3 530.3 222.1C530.3 226.9 528.1 232.8 523.7 239.8C519.3 246.8 514.8 250.3 510.2 250.3C507.8 250.3 503.3 248.8 496.7 245.8C490.3 242.8 483.3 241.3 475.7 241.3C463.9 241.3 458 243.5 458 247.9C458 253.9 464.8 257.8 478.4 259.6C491.6 261 504.4 264.8 516.8 271C522.6 273.8 527.4 278.7 531.2 285.7C535.2 292.5 537.2 301.1 537.2 311.5C537.2 321.9 535.2 330.8 531.2 338.2C527.4 345.4 522 350.8 515 354.4C502.2 360.6 486.1 363.7 466.7 363.7C447.5 363.7 429 358.1 411.2 346.9ZM626.977 360.4C606.777 360.4 589.977 352.8 576.577 337.6C563.377 322.2 556.777 303.5 556.777 281.5V229C556.777 224.2 556.877 220.7 557.077 218.5C557.477 216.3 558.377 213.7 559.777 210.7C562.577 205.3 570.377 202.6 583.177 202.6C597.177 202.6 605.377 206.4 607.777 214C608.977 217.2 609.577 222.3 609.577 229.3V281.8C609.577 290 611.877 296.4 616.477 301C621.277 305.6 627.577 307.9 635.377 307.9C643.377 307.9 649.777 305.5 654.577 300.7C659.577 295.9 662.077 289.6 662.077 281.8V228.7C662.077 224.1 662.177 220.7 662.377 218.5C662.777 216.1 663.777 213.4 665.377 210.4C667.977 205.2 675.677 202.6 688.477 202.6C701.077 202.6 708.777 205.3 711.577 210.7C712.977 213.7 713.777 216.4 713.977 218.8C714.377 221 714.577 224.4 714.577 229V335.2C714.577 339.6 714.377 343 713.977 345.4C713.777 347.6 712.877 350.1 711.277 352.9C708.277 358.1 700.577 360.7 688.177 360.7C675.977 360.7 668.477 358.3 665.677 353.5C663.677 350.1 662.677 346 662.677 341.2C661.877 342.6 660.077 344.6 657.277 347.2C654.477 349.8 651.777 352 649.177 353.8C642.377 358.2 634.977 360.4 626.977 360.4ZM825.411 203.2C843.211 203.2 859.511 211.1 874.311 226.9C889.311 242.7 896.811 261.1 896.811 282.1C896.811 302.9 889.411 321.2 874.611 337C859.811 352.6 843.911 360.4 826.911 360.4C809.911 360.4 797.811 355.6 790.611 346C789.011 355.8 780.411 360.7 764.811 360.7C752.211 360.7 744.511 358 741.711 352.6C740.311 349.6 739.411 347 739.011 344.8C738.811 342.4 738.711 338.9 738.711 334.3V155.2C738.711 150.6 738.811 147.2 739.011 145C739.411 142.6 740.311 140 741.711 137.2C744.511 131.8 752.311 129.1 765.111 129.1C777.711 129.1 785.311 131.8 787.911 137.2C789.511 140.2 790.411 142.9 790.611 145.3C791.011 147.5 791.211 150.9 791.211 155.5V217.9C799.211 208.1 810.611 203.2 825.411 203.2ZM799.011 300.1C804.011 305.5 810.211 308.2 817.611 308.2C825.011 308.2 831.311 305.5 836.511 300.1C841.711 294.7 844.311 288.7 844.311 282.1C844.311 275.5 841.911 269.5 837.111 264.1C832.311 258.5 825.911 255.7 817.911 255.7C809.911 255.7 803.511 258.5 798.711 264.1C794.111 269.7 791.811 275.8 791.811 282.4C791.811 288.8 794.211 294.7 799.011 300.1ZM1018.85 219.7C1020.05 208.5 1027.95 202.9 1042.55 202.9C1050.35 202.9 1056.15 203.5 1059.95 204.7C1063.75 205.9 1066.35 208 1067.75 211C1069.35 214 1070.25 216.7 1070.45 219.1C1070.85 221.3 1071.05 224.7 1071.05 229.3V334.3C1071.05 338.9 1070.85 342.4 1070.45 344.8C1070.25 347 1069.45 349.6 1068.05 352.6C1065.25 357.8 1058.35 360.4 1047.35 360.4C1036.55 360.4 1029.25 359.1 1025.45 356.5C1021.85 353.7 1019.75 349.7 1019.15 344.5C1011.75 355.1 999.35 360.4 981.95 360.4C964.75 360.4 948.75 352.5 933.95 336.7C919.15 320.9 911.75 302.6 911.75 281.8C911.75 260.8 919.15 242.5 933.95 226.9C948.95 211.1 965.35 203.2 983.15 203.2C989.95 203.2 996.15 204.4 1001.75 206.8C1007.35 209.2 1011.25 211.5 1013.45 213.7C1015.65 215.7 1017.45 217.7 1018.85 219.7ZM964.25 282.1C964.25 288.7 966.85 294.7 972.05 300.1C977.25 305.3 983.55 307.9 990.95 307.9C998.35 307.9 1004.45 305.2 1009.25 299.8C1014.25 294.4 1016.75 288.5 1016.75 282.1C1016.75 275.5 1014.35 269.4 1009.55 263.8C1004.95 258.2 998.65 255.4 990.65 255.4C982.85 255.4 976.45 258.2 971.45 263.8C966.65 269.4 964.25 275.5 964.25 282.1ZM1096.16 346.9C1092.36 344.5 1090.46 340.7 1090.46 335.5C1090.46 330.3 1094.26 322.4 1101.86 311.8C1104.06 308.4 1107.56 306.7 1112.36 306.7C1117.36 306.7 1124.06 309.2 1132.46 314.2C1140.86 319 1148.46 321.4 1155.26 321.4C1167.46 321.4 1173.56 319 1173.56 314.2C1173.56 310.4 1166.86 307.6 1153.46 305.8C1140.86 304 1128.36 299.3 1115.96 291.7C1110.16 288.1 1105.36 282.5 1101.56 274.9C1097.76 267.1 1095.86 257.9 1095.86 247.3C1095.86 215.7 1117.56 199.9 1160.96 199.9C1175.16 199.9 1189.76 203.3 1204.76 210.1C1211.76 213.3 1215.26 217.3 1215.26 222.1C1215.26 226.9 1213.06 232.8 1208.66 239.8C1204.26 246.8 1199.76 250.3 1195.16 250.3C1192.76 250.3 1188.26 248.8 1181.66 245.8C1175.26 242.8 1168.26 241.3 1160.66 241.3C1148.86 241.3 1142.96 243.5 1142.96 247.9C1142.96 253.9 1149.76 257.8 1163.36 259.6C1176.56 261 1189.36 264.8 1201.76 271C1207.56 273.8 1212.36 278.7 1216.16 285.7C1220.16 292.5 1222.16 301.1 1222.16 311.5C1222.16 321.9 1220.16 330.8 1216.16 338.2C1212.36 345.4 1206.96 350.8 1199.96 354.4C1187.16 360.6 1171.06 363.7 1151.66 363.7C1132.46 363.7 1113.96 358.1 1096.16 346.9ZM1394.14 263.2C1394.14 275.4 1391.04 284.5 1384.84 290.5C1378.84 296.3 1372.14 299.2 1364.74 299.2H1293.64C1293.64 304.8 1296.94 309.5 1303.54 313.3C1310.14 317.1 1316.74 319 1323.34 319C1334.94 319 1344.04 317.8 1350.64 315.4L1353.94 314.2C1358.74 312 1362.74 310.9 1365.94 310.9C1372.34 310.9 1377.84 315.4 1382.44 324.4C1385.04 329.8 1386.34 334.4 1386.34 338.2C1386.34 356 1365.04 364.9 1322.44 364.9C1307.64 364.9 1294.44 362.4 1282.84 357.4C1271.44 352.2 1262.54 345.4 1256.14 337C1243.54 320.8 1237.24 302.7 1237.24 282.7C1237.24 257.5 1245.34 237.4 1261.54 222.4C1277.94 207.2 1298.34 199.6 1322.74 199.6C1350.54 199.6 1370.94 209.4 1383.94 229C1390.74 239.4 1394.14 250.8 1394.14 263.2ZM1330.84 271.9C1338.44 271.9 1342.24 268.7 1342.24 262.3C1342.24 257.7 1340.44 254 1336.84 251.2C1333.44 248.4 1328.44 247 1321.84 247C1315.44 247 1309.04 249.7 1302.64 255.1C1296.24 260.3 1293.04 265.9 1293.04 271.9H1330.84Z" fill="url(#paint0_linear_87_2)"/>
<defs>
<linearGradient id="paint0_linear_87_2" x1="750" y1="69" x2="750" y2="432" gradientUnits="userSpaceOnUse">
<stop stop-color="#6B40FE"/>
<stop offset="1" stop-color="#4626B2"/>
</linearGradient>
</defs>
</svg>
